<?xml version="1.0" encoding="UTF-8"?>
<svg version="1.1" xmlns="http://www.w3.org/2000/svg" width="265" height="212">
<path d="M0 0 C1.29262253 0.00910904 1.29262253 0.00910904 2.61135864 0.0184021 C3.52243881 0.01314514 4.43351898 0.00788818 5.37220764 0.00247192 C8.39586371 -0.01076828 11.41899564 -0.00196625 14.44265747 0.00814819 C16.55238445 0.00612635 18.66211074 0.00321399 20.77183533 -0.00054932 C25.20636613 -0.00497998 29.64071604 0.00147389 34.07522583 0.01547241 C39.71796214 0.03242878 45.36026608 0.02281456 51.00298595 0.00475502 C55.36918788 -0.00617951 59.73529052 -0.00259025 64.10149574 0.0051384 C66.17879603 0.00712093 68.25610574 0.00475068 70.333395 -0.00230026 C101.45382786 -0.08463483 101.45382786 -0.08463483 113.71218872 7.40658569 C114.66093872 7.96346069 115.60968872 8.52033569 116.58718872 9.09408569 C127.82358224 17.4090169 135.23907813 26.10924783 139.71218872 39.40658569 C140.0705481 40.45330444 140.42890747 41.50002319 140.79812622 42.57846069 C144.2537799 57.05085644 142.19659143 72.64870142 135.02468872 85.59408569 C128.81631009 95.15498879 121.62518934 101.83052284 111.71218872 107.40658569 C110.66031372 108.04596069 109.60843872 108.68533569 108.52468872 109.34408569 C104.68829038 110.79339173 101.80366276 110.67935063 97.71218872 110.40658569 C97.05218872 110.07658569 96.39218872 109.74658569 95.71218872 109.40658569 C95.71218872 108.74658569 95.71218872 108.08658569 95.71218872 107.40658569 C94.8215271 107.02240479 94.8215271 107.02240479 93.91287231 106.63046265 C91.49663827 105.28671057 90.24715995 103.95407054 88.50125122 101.82455444 C84.59386252 97.20966789 80.38550765 92.9680423 76.08718872 88.71908569 C75.34984497 87.98625366 74.61250122 87.25342163 73.85281372 86.49838257 C72.77386841 85.42620483 72.77386841 85.42620483 71.67312622 84.33236694 C70.64783813 83.30877075 70.64783813 83.30877075 69.60183716 82.26449585 C68.45793701 81.13980849 67.29842787 80.03031324 66.11160278 78.95101929 C63.11976126 76.19865395 62.33850738 74.36848219 61.71218872 70.40658569 C62.49344116 70.39723999 63.2746936 70.38789429 64.07962036 70.37826538 C67.64526636 70.32433257 71.20963287 70.2407276 74.77468872 70.15658569 C76.61837036 70.13531616 76.61837036 70.13531616 78.4992981 70.11361694 C85.37568232 69.92826966 90.19607925 69.68137657 95.71218872 65.40658569 C99.4252791 60.42322755 100.99952152 55.66159967 100.71218872 49.40658569 C99.90857464 45.99451933 98.6019574 43.29635437 96.08718872 40.78158569 C92.79998478 38.87846762 89.6124407 38.60248882 85.89968872 38.28158569 C85.0694519 38.20158325 84.23921509 38.12158081 83.38381958 38.03915405 C76.98427397 37.49897944 70.59118408 37.29982535 64.17312622 37.16830444 C63.32448502 37.15035828 62.47584381 37.13241211 61.60148621 37.11392212 C57.30458001 37.02710524 53.00859018 36.96075146 48.71096802 36.92367554 C34.74984029 36.7454964 22.77585325 35.80429302 11.71218872 26.40658569 C11.29698975 25.88381546 10.88179077 25.36104523 10.45401001 24.82243347 C7.92933327 22.77023789 6.04311269 23.03237138 2.8196106 23.03427124 C1.00257629 23.02492805 1.00257629 23.02492805 -0.85116577 23.01539612 C-2.81527405 23.02921074 -2.81527405 23.02921074 -4.81906128 23.04330444 C-6.17522176 23.04382314 -7.53138299 23.04330506 -8.88754272 23.04179382 C-11.7289249 23.04188351 -14.57002316 23.05230606 -17.41134644 23.07040405 C-21.05322433 23.09309139 -24.6946874 23.09363509 -28.33661652 23.08688641 C-31.13674607 23.08354469 -33.93678108 23.09018029 -36.7368927 23.10001564 C-38.73273945 23.10573616 -40.72860232 23.10443181 -42.72445679 23.1030426 C-44.54149109 23.11734062 -44.54149109 23.11734062 -46.39523315 23.13192749 C-47.46318115 23.13653488 -48.53112915 23.14114227 -49.63143921 23.14588928 C-52.51572108 23.21851703 -52.51572108 23.21851703 -55.28781128 25.40658569 C-63.98523167 26.87954304 -73.05663466 26.58944523 -81.85031128 26.59408569 C-83.10650269 26.60633179 -84.36269409 26.61857788 -85.6569519 26.63119507 C-87.45616089 26.63409546 -87.45616089 26.63409546 -89.29171753 26.63705444 C-90.372677 26.64116333 -91.45363647 26.64527222 -92.56735229 26.64950562 C-95.28781128 26.40658569 -95.28781128 26.40658569 -98.28781128 24.40658569 C-98.68624878 21.50814819 -98.68624878 21.50814819 -98.66281128 18.03158569 C-98.67054565 16.88947632 -98.67828003 15.74736694 -98.68624878 14.57064819 C-98.06077159 9.60362348 -98.06077159 9.60362348 -95.28781128 7.40658569 C-92.19418695 7.04371525 -89.49939772 6.93723332 -86.41281128 7.03158569 C-85.54035767 7.04520142 -84.66790405 7.05881714 -83.76901245 7.07284546 C-55.970824 7.72357297 -55.970824 7.72357297 -53.28781128 10.40658569 C-51.7223408 10.49985285 -50.15268355 10.52404151 -48.58444214 10.52011108 C-47.08299904 10.51999779 -47.08299904 10.51999779 -45.55122375 10.5198822 C-44.46269608 10.51472092 -43.3741684 10.50955963 -42.25265503 10.50424194 C-41.14426773 10.502827 -40.03588043 10.50141205 -38.89390564 10.49995422 C-35.33768059 10.49433603 -31.78151745 10.48178044 -28.22531128 10.46908569 C-25.82101531 10.46407304 -23.41671836 10.45950973 -21.01242065 10.45541382 C-15.10419351 10.44436068 -9.19601291 10.42708386 -3.28781128 10.40658569 C-5.26781128 8.09658569 -7.24781128 5.78658569 -9.28781128 3.40658569 C-5.87638071 -0.00484488 -4.63124617 0.04967023 0 0 Z " fill="#F5F5F5" transform="translate(109.28781127929688,27.593414306640625)"/>
<path d="M0 0 C7.70455635 -0.10161146 15.40893918 -0.17155479 23.11401367 -0.21972656 C25.73387103 -0.23981327 28.35368372 -0.26708789 30.97338867 -0.30175781 C34.74409017 -0.35040279 38.51419767 -0.37299908 42.28515625 -0.390625 C43.45208511 -0.41127014 44.61901398 -0.43191528 45.82130432 -0.45318604 C53.96228666 -0.45542078 58.23696688 0.71940703 64.4375 6.125 C66 8 66 8 66 10 C66.556875 10.226875 67.11375 10.45375 67.6875 10.6875 C70.66159588 12.37550036 72.72008865 14.46676517 75 17 C75 17.66 75 18.32 75 19 C75.66 19 76.32 19 77 19 C79.625 21.375 79.625 21.375 82 24 C82 24.66 82 25.32 82 26 C83.32 26.66 84.64 27.32 86 28 C86 28.66 86 29.32 86 30 C87.32 30.66 88.64 31.32 90 32 C90 32.66 90 33.32 90 34 C90.66 34 91.32 34 92 34 C94.625 36.375 94.625 36.375 97 39 C97 39.66 97 40.32 97 41 C98.32 41.66 99.64 42.32 101 43 C101 43.66 101 44.32 101 45 C102.32 45.66 103.64 46.32 105 47 C105 47.66 105 48.32 105 49 C105.66 49 106.32 49 107 49 C107 49.66 107 50.32 107 51 C107.66 51 108.32 51 109 51 C109 51.66 109 52.32 109 53 C110.485 53.495 110.485 53.495 112 54 C112 54.66 112 55.32 112 56 C113.32 56.66 114.64 57.32 116 58 C116 58.66 116 59.32 116 60 C116.66 60 117.32 60 118 60 C118 60.66 118 61.32 118 62 C118.66 62 119.32 62 120 62 C120 62.66 120 63.32 120 64 C121.98 64.99 121.98 64.99 124 66 C124 66.66 124 67.32 124 68 C125.98 68.99 125.98 68.99 128 70 C128 70.66 128 71.32 128 72 C128.99 72.33 129.98 72.66 131 73 C133.1875 74.9375 133.1875 74.9375 135 77 C135 77.66 135 78.32 135 79 C136.32 79.66 137.64 80.32 139 81 C139 81.66 139 82.32 139 83 C139.61875 83.268125 140.2375 83.53625 140.875 83.8125 C143 85 143 85 145 88 C145 88.99 145 89.98 145 91 C141.66971836 91.74112395 138.56252166 92.13594504 135.15307617 92.17700195 C134.21827927 92.18983719 133.28348236 92.20267242 132.32035828 92.21589661 C131.32131973 92.22328354 130.32228119 92.23067047 129.29296875 92.23828125 C128.25360672 92.246353 127.21424469 92.25442474 126.14338684 92.26274109 C123.94708916 92.27654897 121.75077031 92.28728581 119.55444336 92.29516602 C117.31512132 92.30669468 115.07582694 92.32716032 112.83666992 92.35668945 C109.59274715 92.39945123 106.3496387 92.41554629 103.10546875 92.42578125 C102.1125029 92.44328934 101.11953705 92.46079742 100.09648132 92.47883606 C92.65522919 92.45578093 87.50489083 90.80628083 81.6875 86.1484375 C81.130625 85.56320313 80.57375 84.97796875 80 84.375 C79.4225 83.78460938 78.845 83.19421875 78.25 82.5859375 C77 81 77 81 77 79 C76.45859375 78.7834375 75.9171875 78.566875 75.359375 78.34375 C72.18354656 76.53500003 69.79271919 74.08276201 67.25 71.5 C66.74339844 71.00113281 66.23679687 70.50226563 65.71484375 69.98828125 C62 66.25341139 62 66.25341139 62 64 C61.45695724 63.78096512 60.91391449 63.56193024 60.35441589 63.33625793 C57.21718815 61.55571208 54.85745623 59.15241536 52.3293457 56.61987305 C51.77441437 56.07165894 51.21948303 55.52344482 50.6477356 54.95861816 C48.81841915 53.14827065 46.9967122 51.33049807 45.17578125 49.51171875 C43.9060877 48.24845254 42.63624404 46.98533719 41.36625671 45.72236633 C38.70730933 43.07538799 36.05252301 40.42431369 33.40014648 37.77075195 C30.00054225 34.37094425 26.5873778 30.9851134 23.17051411 27.60266399 C20.54458959 24.99896999 17.92779891 22.38624314 15.31349754 19.77088356 C14.05880043 18.51854699 12.80085784 17.26945329 11.53963661 16.02368736 C9.77760389 14.28124121 8.02868669 12.52658794 6.2824707 10.76831055 C5.75935806 10.25643692 5.23624542 9.74456329 4.69728088 9.21717834 C1.80473853 6.27357238 0.3302465 4.1599903 0 0 Z M27 8 C30.50971195 12.18512044 34.08917065 16.18012017 38 20 C38.73992187 20.75023437 39.47984375 21.50046875 40.2421875 22.2734375 C41.04914063 23.09070313 41.85609375 23.90796875 42.6875 24.75 C43.45449219 25.52859375 44.22148437 26.3071875 45.01171875 27.109375 C46.8610699 29.05230615 46.8610699 29.05230615 49 30 C50.87862875 29.91255632 52.75455181 29.75824458 54.625 29.5625 C55.62789062 29.46066406 56.63078125 29.35882813 57.6640625 29.25390625 C58.82035156 29.12822266 58.82035156 29.12822266 60 29 C59.34 28.67 58.68 28.34 58 28 C56.875 25.9375 56.875 25.9375 56 24 C55.34 24 54.68 24 54 24 C53.34 22.68 52.68 21.36 52 20 C51.34 20 50.68 20 50 20 C49.731875 19.401875 49.46375 18.80375 49.1875 18.1875 C48.00082594 16.00152146 46.90400887 14.58667406 45 13 C44.34 13 43.68 13 43 13 C42.566875 12.0409375 42.566875 12.0409375 42.125 11.0625 C41.17176549 8.84793921 41.17176549 8.84793921 39 8 C36.95944995 7.92934383 34.91665743 7.91578024 32.875 7.9375 C31.77929688 7.94652344 30.68359375 7.95554687 29.5546875 7.96484375 C28.29011719 7.98224609 28.29011719 7.98224609 27 8 Z M57 36 C61.21123922 41.02506765 65.60032268 45.75487571 70.25 50.375 C70.87390625 51.00277344 71.4978125 51.63054687 72.140625 52.27734375 C72.73875 52.87417969 73.336875 53.47101563 73.953125 54.0859375 C74.49098633 54.6226709 75.02884766 55.1594043 75.58300781 55.71240234 C78.22935383 58.11709374 80.16033751 58.11199518 83.625 58.0625 C84.44226563 58.05347656 85.25953125 58.04445313 86.1015625 58.03515625 C86.72804688 58.02355469 87.35453125 58.01195312 88 58 C88.41794621 54.09153669 88.41794621 54.09153669 86.390625 52 C85.68421875 51.34 84.9778125 50.68 84.25 50 C83.20585937 49.01 83.20585937 49.01 82.140625 48 C81.43421875 47.34 80.7278125 46.68 80 46 C79.29359375 45.2575 78.5871875 44.515 77.859375 43.75 C76.18283085 41.7715451 76.18283085 41.7715451 74 42 C73.71125 41.38125 73.4225 40.7625 73.125 40.125 C72.06279958 37.86674235 72.06279958 37.86674235 70 36 C66.87185486 35.75639927 66.87185486 35.75639927 63.375 35.875 C61.59222656 35.90207031 61.59222656 35.90207031 59.7734375 35.9296875 C58.40058594 35.96449219 58.40058594 35.96449219 57 36 Z M88 65 C88.66 66.32 89.32 67.64 90 69 C90.66 69 91.32 69 92 69 C92.66 70.32 93.32 71.64 94 73 C94.66 73 95.32 73 96 73 C96.66 74.32 97.32 75.64 98 77 C98.66 77 99.32 77 100 77 C100 77.66 100 78.32 100 79 C103.05899162 82.97668911 106.15423878 85.73664139 111.203125 86.45703125 C114.16477945 86.4394859 117.05529409 86.30919412 120 86 C118.12845182 82.62432414 116.36397765 80.18546327 113.375 77.75 C110.99121512 75.78662809 108.91362099 73.89933152 106.8984375 71.55078125 C102.69749698 66.58973898 102.69749698 66.58973898 96.76171875 64.4296875 C93.78742728 64.43667761 90.94497264 64.59637431 88 65 Z " fill="#EAEAEA" transform="translate(106,102)"/>
</svg>
